<svg width="467" height="443" viewBox="0 0 467 443" fill="none" xmlns="http://www.w3.org/2000/svg">
<path d="M188.692 2.8144C158.826 8.0144 146.026 12.0144 118.826 24.9477C69.7591 48.1477 27.0924 94.4144 9.49241 143.348C0.559079 168.414 -2.77425 205.081 2.55908 220.948C8.55908 238.548 16.1591 247.748 30.5591 254.814C41.0924 260.014 50.9591 262.148 68.0257 263.214C83.3591 264.014 83.3591 264.014 86.5591 268.281C90.9591 274.014 97.6258 276.948 105.892 276.948C117.759 276.948 125.892 272.281 130.159 262.948C135.492 251.348 131.759 237.481 121.226 230.281C116.559 226.948 114.026 226.148 107.626 226.148C96.2924 226.014 85.8924 232.281 83.8924 240.548L82.9591 244.014L69.4924 243.081C43.8924 241.348 30.4257 234.814 24.4257 221.348C12.5591 194.414 30.6924 134.814 62.4257 96.5477C66.1591 92.0144 70.2924 87.2144 71.3591 85.7477C75.6258 80.5477 95.2258 64.4144 105.359 57.6144C129.226 42.0144 146.692 34.5477 178.026 26.9477C212.292 18.6811 269.626 20.6811 302.692 31.3477C338.826 43.0811 369.892 62.6811 394.426 88.9477C414.826 110.948 427.092 131.481 436.026 158.681C443.226 180.681 445.226 192.814 445.226 215.614C445.226 236.281 442.426 249.614 434.826 265.881C422.559 291.614 400.426 313.081 372.426 326.281C360.692 331.881 350.559 331.881 344.426 326.414L340.026 322.548L339.626 297.748L339.226 272.948H354.026C368.026 272.948 368.826 273.081 369.892 275.881C371.492 280.014 379.092 287.081 383.759 288.814C388.959 290.814 398.559 290.681 403.759 288.548C409.892 285.881 417.759 276.681 418.826 270.681C421.626 255.748 408.026 239.614 392.692 239.614C385.359 239.614 378.959 242.814 373.759 248.948L369.092 254.281H354.292H339.359V241.614V228.814L355.492 212.281L371.626 195.748L380.426 196.548C391.226 197.348 397.092 195.214 403.092 188.414C410.559 179.881 411.759 170.281 406.692 160.148C401.892 150.681 395.759 146.948 384.426 146.948C376.692 146.948 374.826 147.481 369.892 150.948C361.359 156.948 358.826 162.281 358.692 173.881V183.481L342.559 199.881C333.626 208.948 325.092 218.814 323.492 222.014C320.692 227.614 320.559 228.681 320.959 277.481L321.359 327.214L325.359 333.748C333.359 346.681 349.492 353.481 365.226 350.548C375.359 348.548 400.026 336.548 411.359 327.881C438.426 307.348 454.826 283.614 462.959 253.214C466.159 241.481 466.426 237.881 466.559 214.948C466.559 187.081 464.559 173.614 456.559 149.748C452.826 138.281 442.026 115.214 437.092 107.881C435.626 105.881 433.892 102.814 432.959 100.948C428.692 92.5477 410.959 71.3477 399.092 60.8144C382.426 45.8811 365.759 34.8144 343.359 24.0144C319.359 12.4144 317.759 11.8811 302.692 8.28107C277.092 2.14774 265.492 0.681069 236.026 0.147736C210.026 -0.252264 204.692 0.0144023 188.692 2.8144ZM391.226 165.748C392.826 167.748 394.026 170.414 394.026 171.748C394.026 175.214 387.492 182.281 384.292 182.281C379.359 182.281 373.626 176.681 373.626 171.881C373.626 162.948 385.759 158.814 391.226 165.748ZM111.492 242.281C114.692 244.148 117.626 250.148 116.959 253.881C116.426 257.348 110.159 262.281 106.292 262.281C102.826 262.281 96.6924 255.081 96.6924 250.948C96.6924 247.614 103.492 240.948 106.826 240.948C108.026 240.948 110.026 241.614 111.492 242.281ZM399.492 258.148C403.626 262.414 404.159 264.814 401.759 269.348C399.759 273.348 396.559 275.481 393.226 275.614C389.626 275.614 382.026 268.681 382.026 265.348C382.159 261.081 389.092 254.414 393.759 254.281C394.826 254.281 397.359 256.014 399.492 258.148Z" fill="url(#paint0_linear_109_52)"/>
<path d="M235.626 54.9479C227.092 57.4812 221.092 62.2812 218.026 68.5479C212.826 79.4812 215.359 89.7479 225.492 99.2146L231.626 104.815V125.881V146.948H205.892C183.359 146.948 179.492 146.681 175.626 144.548C170.159 141.481 166.159 133.215 166.026 124.815C166.026 119.215 166.559 118.281 171.492 114.281C190.959 98.6812 181.226 67.6146 156.959 67.6146C144.559 67.6146 132.426 77.6146 130.426 89.3479C128.826 99.7479 136.159 113.481 145.492 116.948C148.559 118.148 148.692 118.815 148.692 128.948C148.692 141.881 151.626 148.948 160.026 156.815C169.359 165.481 175.892 166.681 206.026 165.481L231.226 164.548L232.026 167.881C232.426 169.615 232.692 197.215 232.426 229.081L232.026 286.948L228.559 293.615C226.559 297.215 221.359 303.748 216.959 307.881C209.492 314.948 208.426 315.615 202.826 315.615C196.426 315.615 172.026 308.548 170.692 306.281C170.159 305.481 176.959 297.348 185.626 288.148C208.426 263.881 207.359 266.548 207.359 237.215C207.359 215.748 207.092 212.281 204.826 207.748C199.492 197.481 189.492 191.615 177.226 191.615C174.292 191.615 166.159 191.215 159.359 190.681L146.959 189.881L130.959 174.415C119.492 163.215 114.159 157.081 112.026 152.281C106.559 140.148 99.2258 135.215 87.0925 135.215C81.0925 135.348 78.2925 136.148 73.7591 139.215C63.3591 146.015 59.2258 159.748 64.0258 171.215C66.6925 177.615 69.4925 180.681 75.8925 183.881C83.2258 187.615 97.4925 186.815 103.492 182.415L107.626 179.348L113.092 184.415C116.159 187.348 120.026 191.081 121.892 192.948C123.892 194.815 128.826 199.481 133.092 203.215L140.959 210.281H161.759C178.292 210.415 183.226 210.815 185.359 212.415C187.759 214.281 188.026 216.281 188.426 235.615L188.826 256.815L183.092 263.215C180.026 266.681 171.359 275.748 164.026 283.348C156.692 290.948 150.559 297.615 150.292 298.281C150.026 299.081 141.759 299.615 130.826 299.615C108.559 299.615 106.026 300.548 106.026 308.948C106.026 312.948 106.826 314.681 109.492 316.815C112.692 319.348 114.826 319.615 132.026 319.615H150.959L163.759 325.615C176.292 331.615 193.759 336.948 200.692 336.948C205.626 336.948 212.426 342.281 227.492 357.748C246.292 377.348 255.626 391.481 269.759 422.281C277.492 438.815 280.292 442.281 286.026 442.281C290.026 442.281 296.692 435.881 296.692 432.148C296.692 428.681 280.692 395.748 270.559 378.281C263.892 366.681 252.026 352.148 239.226 339.615L226.292 326.948L234.026 318.548C238.292 314.015 243.492 307.348 245.626 303.881L249.359 297.615L249.759 200.681L250.159 103.615L253.759 101.748C265.626 95.6146 270.826 79.6146 264.692 67.7479C258.959 56.2812 247.759 51.3479 235.626 54.9479ZM250.426 74.5479C252.959 77.8812 252.959 78.2812 250.959 82.6812C249.626 85.2146 247.759 87.7479 246.559 88.1479C236.292 92.1479 227.359 81.8812 233.492 73.2146C235.226 70.6812 236.559 70.1479 241.626 70.5479C246.426 70.8146 248.292 71.7479 250.426 74.5479ZM165.226 89.4812C167.092 93.2146 166.959 94.0146 164.826 97.6146C163.359 100.415 160.959 102.015 157.492 102.948C152.826 104.015 152.159 103.881 149.226 100.548C143.892 94.4146 145.626 87.4812 153.092 84.2812C158.426 82.1479 162.426 83.8812 165.226 89.4812ZM94.4258 154.015C96.4258 156.015 98.0258 158.948 98.0258 160.548C98.0258 163.881 93.4925 169.881 90.1591 170.948C86.2925 172.148 80.9591 169.348 78.6925 164.948C76.6925 161.081 76.6925 160.548 78.8258 157.215C83.8925 149.348 88.9591 148.281 94.4258 154.015Z" fill="url(#paint1_linear_109_52)"/>
<path d="M305.626 59.8812C294.159 67.0812 289.359 82.5479 295.226 93.8812C298.026 99.4812 302.959 104.281 307.492 105.615C309.892 106.415 310.026 108.015 310.026 131.348V156.281L295.892 170.281C288.159 178.015 280.292 186.948 278.292 190.281L274.692 196.281V269.615V342.948L278.559 352.281C280.692 357.348 285.759 367.348 289.759 374.281C300.826 393.348 302.026 395.615 307.092 404.948C318.426 426.415 318.426 426.281 324.692 426.281C330.159 426.281 335.359 422.015 335.359 417.348C335.359 413.615 322.426 388.548 312.426 372.948C305.492 362.148 297.226 345.215 294.826 337.081C292.959 330.815 292.692 320.415 292.692 267.481C292.692 229.215 293.226 203.748 294.026 201.615C294.692 199.748 301.226 192.015 308.426 184.548C328.826 163.348 327.359 167.348 327.359 134.681L327.492 106.948L332.559 103.748C339.759 99.3479 343.359 92.4145 343.359 83.0812C343.359 67.8812 334.026 58.1479 318.826 57.2145C312.159 56.9479 309.759 57.3479 305.626 59.8812ZM323.359 74.2812C324.692 74.9479 326.426 77.4812 327.226 79.7479C331.226 91.2145 314.959 98.4145 309.359 87.6145C304.559 78.4145 314.026 69.3479 323.359 74.2812Z" fill="url(#paint2_linear_109_52)"/>
<defs>
<linearGradient id="paint0_linear_109_52" x1="233.28" y1="0.000244141" x2="233.28" y2="351.224" gradientUnits="userSpaceOnUse">
<stop stop-color="#71038F"/>
<stop offset="1" stop-color="#0033FF"/>
</linearGradient>
<linearGradient id="paint1_linear_109_52" x1="179.364" y1="53.7893" x2="179.364" y2="442.281" gradientUnits="userSpaceOnUse">
<stop stop-color="#71038F"/>
<stop offset="1" stop-color="#0033FF"/>
</linearGradient>
<linearGradient id="paint2_linear_109_52" x1="309.026" y1="57.1436" x2="309.026" y2="426.281" gradientUnits="userSpaceOnUse">
<stop stop-color="#71038F"/>
<stop offset="1" stop-color="#0033FF"/>
</linearGradient>
</defs>
</svg>
